<svg width="101" height="221" viewBox="0 0 101 221" fill="none" xmlns="http://www.w3.org/2000/svg">
<path d="M15.4881 206.26C-4.00158 186.77 -4.00158 155.061 15.4881 135.572C34.9779 116.082 66.6866 116.082 86.1763 135.572C105.666 155.061 105.666 186.77 86.1763 206.26C66.6866 225.75 34.9779 225.75 15.4881 206.26ZM83.8207 137.927C65.6296 119.736 36.0348 119.736 17.8485 137.927C-0.342528 156.118 -0.342528 185.713 17.8485 203.899C36.0396 222.09 65.6344 222.09 83.8207 203.899C102.012 185.708 102.012 156.114 83.8207 137.927Z" fill="white"/>
<path d="M84.3638 160.313C84.1884 160.138 84.0462 159.915 83.9657 159.668C82.2357 154.55 79.4108 150.014 75.5716 146.174C71.7372 142.34 67.1965 139.515 62.0776 137.78C61.3998 137.548 60.9448 136.918 60.9448 136.202V124.054C60.9448 123.542 61.1818 123.059 61.5847 122.741C61.9923 122.424 62.5184 122.315 63.0113 122.438C71.7609 124.628 79.771 129.168 86.1696 135.572C92.5682 141.975 97.1089 149.98 99.2987 158.73C99.4219 159.228 99.3081 159.754 98.9953 160.161C98.6777 160.569 98.1943 160.801 97.6824 160.801H85.5345C85.0795 160.801 84.6624 160.616 84.3543 160.308L84.3638 160.313ZM77.9272 143.819C81.8422 147.734 84.7951 152.322 86.7194 157.469H95.5069C93.2982 150.113 89.2836 143.392 83.8187 137.927C78.3538 132.462 71.6329 128.448 64.2816 126.244V135.031C69.4289 136.951 74.017 139.904 77.932 143.824L77.9272 143.819Z" fill="white"/>
<path d="M15.4867 206.26C9.0881 199.861 4.5427 191.851 2.35295 183.101C2.22971 182.604 2.34347 182.078 2.6563 181.675C2.97386 181.267 3.45729 181.035 3.96918 181.035H16.1171C16.8328 181.035 17.4679 181.49 17.6954 182.168C19.4254 187.287 22.2503 191.823 26.0894 195.662C29.9239 199.496 34.4646 202.321 39.5835 204.056C40.2612 204.283 40.7162 204.918 40.7162 205.634V217.782C40.7162 218.294 40.4792 218.777 40.0764 219.095C39.6687 219.412 39.1426 219.521 38.645 219.398C29.8954 217.208 21.8901 212.668 15.4867 206.269V206.26ZM6.15421 184.362C8.36292 191.718 12.3774 198.439 17.8423 203.904C23.3072 209.369 30.0282 213.384 37.3842 215.592V206.805C32.2369 204.885 27.6488 201.932 23.7338 198.017C19.8188 194.102 16.866 189.514 14.9416 184.367H6.15421V184.362Z" fill="white"/>
<path d="M61.433 218.953C61.1202 218.64 60.9448 218.218 60.9448 217.773V205.625C60.9448 204.909 61.3998 204.274 62.0776 204.046C67.1965 202.316 71.7324 199.492 75.5716 195.652C79.4108 191.813 82.2309 187.277 83.9656 182.158C84.1931 181.481 84.8283 181.026 85.544 181.026H97.6919C98.2038 181.026 98.6872 181.263 99.0048 181.665C99.3223 182.068 99.4314 182.599 99.3081 183.092C97.1136 191.842 92.573 199.847 86.1743 206.25C79.7757 212.654 71.7656 217.194 63.0161 219.384C62.5184 219.507 61.9923 219.394 61.5894 219.081C61.5373 219.033 61.4852 218.991 61.4378 218.943L61.433 218.953ZM64.2769 206.8V215.588C71.6329 213.379 78.3538 209.364 83.8187 203.9C89.2836 198.435 93.2934 191.714 95.5069 184.358H86.7194C84.7998 189.505 81.847 194.088 77.9272 198.008C74.0122 201.923 69.4242 204.881 64.2769 206.8Z" fill="white"/>
<path d="M2.78974 160.313C2.74234 160.266 2.69496 160.213 2.65704 160.161C2.33948 159.758 2.23046 159.228 2.35369 158.73C4.54344 149.98 9.0841 141.97 15.4875 135.572C21.8908 129.173 29.8962 124.628 38.6457 122.438C39.1434 122.315 39.6695 122.428 40.0724 122.741C40.4752 123.059 40.7123 123.542 40.7123 124.054V136.202C40.7123 136.918 40.2572 137.553 39.5795 137.78C34.4606 139.51 29.9246 142.335 26.0854 146.174C22.251 150.009 19.4262 154.549 17.6914 159.668C17.4639 160.346 16.8288 160.801 16.1131 160.801H3.96521C3.51967 160.801 3.09307 160.626 2.78499 160.318L2.78974 160.313ZM37.3802 126.244C30.0242 128.453 23.3032 132.467 17.8383 137.932C12.3734 143.397 8.36366 150.118 6.15021 157.474H14.9376C16.8572 152.327 19.8101 147.743 23.7298 143.824C27.6448 139.909 32.2329 136.956 37.3802 135.031V126.244Z" fill="white"/>
<path d="M77.9314 143.819C62.9918 128.879 38.6771 128.874 23.7375 143.819C8.79315 158.763 8.79789 183.073 23.7375 198.013C38.6771 212.952 62.9871 212.957 77.9314 198.013C92.8757 183.068 92.871 158.758 77.9314 143.819Z" fill="white"/>
<path d="M64.6503 184.593L37.1226 184.776C35.963 184.784 35.0292 185.73 35.0369 186.889L35.0434 187.871C35.0511 189.03 35.9974 189.964 37.157 189.956L64.6846 189.774C65.8442 189.766 66.7781 188.82 66.7704 187.66L66.7639 186.679C66.7562 185.519 65.8099 184.586 64.6503 184.593Z" fill="#110A1D"/>
<path d="M40.8732 167.977C40.5746 167.977 40.2713 167.911 39.9964 167.778L37.8492 166.74C36.9155 166.285 36.4889 165.181 36.8776 164.219L37.8635 161.764C38.1668 161.015 38.8825 160.526 39.6883 160.522C40.0343 160.522 40.3755 160.607 40.6788 160.782L43.2383 162.242C43.717 162.512 44.063 162.982 44.1862 163.522C44.3095 164.062 44.2005 164.631 43.8876 165.086L42.4847 167.119C42.1197 167.65 41.513 167.973 40.8684 167.973L40.8732 167.977Z" fill="#110A1D"/>
<path d="M60.6919 167.845C60.0473 167.845 59.4359 167.537 59.0663 167.01L57.6775 165.053C57.3552 164.603 57.2415 164.034 57.3552 163.494C57.469 162.953 57.8102 162.479 58.2889 162.2L60.9289 160.65C61.2275 160.474 61.5688 160.38 61.9148 160.375C62.7206 160.37 63.4458 160.849 63.7586 161.593L64.7539 163.977C65.152 164.934 64.7397 166.048 63.8155 166.513L61.5688 167.636C61.2987 167.769 60.9953 167.845 60.6967 167.845H60.6919Z" fill="#110A1D"/>
<path d="M38.7106 182.936C37.502 182.945 36.4166 182.187 36.0043 181.049L31.4115 168.408C31.1176 168.551 30.8048 168.66 30.4872 168.74C30.1128 168.835 29.7336 168.882 29.3497 168.882C29.1269 168.882 28.9089 168.873 28.6956 168.845C26.302 168.541 24.4868 166.489 24.4725 164.072C24.4536 161.398 26.6148 159.209 29.288 159.19C31.9612 159.171 34.151 161.332 34.1652 164.005C34.1652 164.621 34.0609 165.214 33.8429 165.768C33.7244 166.072 33.5775 166.361 33.4069 166.636L42.1422 170.864L48.8252 161.18C48.5456 161.062 48.2754 160.915 48.0194 160.74C47.536 160.413 47.1141 160.005 46.7729 159.526C46.1946 158.711 45.8818 157.749 45.8771 156.753C45.8581 154.08 48.0194 151.891 50.6926 151.872C50.8111 151.872 50.9344 151.872 51.0529 151.881C53.4464 152.042 55.3802 153.962 55.5556 156.355C55.6362 157.488 55.3376 158.574 54.693 159.498C54.3517 159.981 53.9346 160.394 53.4559 160.721C53.2047 160.896 52.9345 161.043 52.6549 161.161L59.4564 170.745L68.0495 166.446C67.8883 166.138 67.7604 165.816 67.6656 165.479C67.5518 165.072 67.4902 164.645 67.4902 164.214C67.4902 164.019 67.4997 163.825 67.5186 163.636C67.7935 161.199 69.8506 159.351 72.301 159.337C74.9742 159.318 77.164 161.479 77.1782 164.152C77.1971 166.702 75.2159 168.845 72.6707 169.02L72.3674 169.029C71.8744 169.029 71.391 168.963 70.9218 168.821C70.6184 168.726 70.3245 168.608 70.0496 168.456L65.7365 180.85C65.3431 181.992 64.2624 182.76 63.0538 182.77L38.7106 182.931V182.936Z" fill="#110A1D"/>
<path d="M100.411 50.0401V169.635C100.411 170.624 99.6098 171.415 98.6314 171.415C97.653 171.415 96.8516 170.614 96.8516 169.635V50.0401C96.8516 49.0513 97.653 48.2603 98.6314 48.2603C99.6098 48.2603 100.411 49.0617 100.411 50.0401Z" fill="white"/>
<path d="M4.86833 49.7799V169.375C4.86833 170.364 4.06691 171.155 3.08849 171.155C2.11008 171.155 1.30859 170.354 1.30859 169.375V49.7799C1.30859 48.791 2.11008 48 3.08849 48C4.06691 48 4.86833 48.8015 4.86833 49.7799Z" fill="white"/>
<path d="M100.09 49.5555C100.09 50.5443 99.2887 51.3354 98.3103 51.3354C97.3319 51.3354 96.5304 50.5339 96.5304 49.5555C96.5304 24.2001 75.9005 3.57015 50.5451 3.57015C25.1896 3.57015 4.55974 24.2001 4.55974 49.5555C4.55974 50.5443 3.75825 51.3354 2.77984 51.3354C1.80142 51.3354 1 50.5339 1 49.5555C1 22.2328 23.2328 0 50.5555 0C77.8782 0 100.111 22.2328 100.111 49.5555H100.09Z" fill="white"/>
</svg>
