<svg width="101" height="218" viewBox="0 0 101 218" fill="none" xmlns="http://www.w3.org/2000/svg">
<path d="M15.0585 203.26C-4.43127 183.77 -4.43127 152.061 15.0585 132.572C34.5482 113.082 66.2569 113.082 85.7466 132.572C105.236 152.061 105.236 183.77 85.7466 203.26C66.2569 222.75 34.5482 222.75 15.0585 203.26ZM83.391 134.927C65.1999 116.736 35.6051 116.736 17.4188 134.927C-0.772216 153.118 -0.772216 182.713 17.4188 200.899C35.6099 219.09 65.2047 219.09 83.391 200.899C101.582 182.708 101.582 153.114 83.391 134.927Z" fill="white"/>
<path d="M83.9341 157.313C83.7587 157.138 83.6166 156.915 83.536 156.668C81.806 151.55 78.9811 147.014 75.1419 143.174C71.3075 139.34 66.7668 136.515 61.6479 134.78C60.9702 134.548 60.5151 133.918 60.5151 133.202V121.054C60.5151 120.542 60.7521 120.059 61.155 119.741C61.5626 119.424 62.0887 119.315 62.5816 119.438C71.3312 121.628 79.3413 126.168 85.7399 132.572C92.1385 138.975 96.6792 146.98 98.869 155.73C98.9922 156.228 98.8784 156.754 98.5656 157.161C98.2481 157.569 97.7646 157.801 97.2527 157.801H85.1048C84.6498 157.801 84.2327 157.616 83.9246 157.308L83.9341 157.313ZM77.4975 140.819C81.4125 144.734 84.3654 149.322 86.2897 154.469H95.0772C92.8685 147.113 88.8539 140.392 83.389 134.927C77.9241 129.462 71.2032 125.448 63.8519 123.244V132.031C68.9993 133.951 73.5873 136.904 77.5023 140.824L77.4975 140.819Z" fill="white"/>
<path d="M15.057 203.26C8.65841 196.861 4.11301 188.851 1.92326 180.101C1.80003 179.604 1.91379 179.078 2.22661 178.675C2.54417 178.267 3.0276 178.035 3.53949 178.035H15.6874C16.4031 178.035 17.0382 178.49 17.2657 179.168C18.9957 184.287 21.8206 188.823 25.6597 192.662C29.4942 196.496 34.0349 199.321 39.1538 201.056C39.8316 201.283 40.2865 201.918 40.2865 202.634V214.782C40.2865 215.294 40.0495 215.777 39.6467 216.095C39.2391 216.412 38.7129 216.521 38.2153 216.398C29.4657 214.208 21.4604 209.668 15.057 203.269V203.26ZM5.72452 181.362C7.93323 188.718 11.9478 195.439 17.4127 200.904C22.8776 206.369 29.5985 210.384 36.9545 212.592V203.805C31.8072 201.885 27.2191 198.932 23.3041 195.017C19.3891 191.102 16.4363 186.514 14.512 181.367H5.72452V181.362Z" fill="white"/>
<path d="M61.0033 215.953C60.6905 215.64 60.5151 215.218 60.5151 214.773V202.625C60.5151 201.909 60.9702 201.274 61.6479 201.046C66.7668 199.316 71.3027 196.492 75.1419 192.652C78.9811 188.813 81.8012 184.277 83.5359 179.158C83.7634 178.481 84.3986 178.026 85.1143 178.026H97.2622C97.7741 178.026 98.2575 178.263 98.5751 178.665C98.8927 179.068 99.0017 179.599 98.8784 180.092C96.684 188.842 92.1433 196.847 85.7446 203.25C79.346 209.654 71.3359 214.194 62.5864 216.384C62.0887 216.507 61.5626 216.394 61.1597 216.081C61.1076 216.033 61.0555 215.991 61.0081 215.943L61.0033 215.953ZM63.8472 203.8V212.588C71.2032 210.379 77.9241 206.364 83.389 200.9C88.8539 195.435 92.8637 188.714 95.0772 181.358H86.2897C84.3701 186.505 81.4173 191.088 77.4975 195.008C73.5825 198.923 68.9945 201.881 63.8472 203.8Z" fill="white"/>
<path d="M2.36005 157.313C2.31265 157.266 2.26527 157.213 2.22735 157.161C1.90979 156.758 1.80077 156.228 1.924 155.73C4.11375 146.98 8.65441 138.97 15.0578 132.572C21.4611 126.173 29.4665 121.628 38.216 119.438C38.7137 119.315 39.2398 119.428 39.6427 119.741C40.0455 120.059 40.2826 120.542 40.2826 121.054V133.202C40.2826 133.918 39.8276 134.553 39.1498 134.78C34.0309 136.51 29.4949 139.335 25.6558 143.174C21.8213 147.009 18.9965 151.549 17.2617 156.668C17.0342 157.346 16.3991 157.801 15.6834 157.801H3.53552C3.08999 157.801 2.66339 157.626 2.35531 157.318L2.36005 157.313ZM36.9505 123.244C29.5945 125.453 22.8736 129.467 17.4087 134.932C11.9438 140.397 7.93397 147.118 5.72052 154.474H14.508C16.4275 149.327 19.3804 144.743 23.3001 140.824C27.2151 136.909 31.8032 133.956 36.9505 132.031V123.244Z" fill="white"/>
<path d="M77.5017 140.819C62.5621 125.879 38.2474 125.874 23.3078 140.819C8.36346 155.763 8.3682 180.073 23.3078 195.013C38.2474 209.952 62.5574 209.957 77.5017 195.013C92.446 180.068 92.4413 155.758 77.5017 140.819Z" fill="white"/>
<path d="M64.2206 181.593L36.6929 181.776C35.5333 181.784 34.5995 182.73 34.6072 183.889L34.6137 184.871C34.6214 186.03 35.5677 186.964 36.7273 186.956L64.255 186.774C65.4146 186.766 66.3484 185.82 66.3407 184.66L66.3342 183.679C66.3265 182.519 65.3802 181.586 64.2206 181.593Z" fill="#110A1D"/>
<path d="M40.4435 164.977C40.1449 164.977 39.8416 164.911 39.5667 164.778L37.4196 163.74C36.4858 163.285 36.0592 162.181 36.4479 161.219L37.4338 158.764C37.7371 158.015 38.4528 157.526 39.2586 157.522C39.6046 157.522 39.9458 157.607 40.2492 157.782L42.8086 159.242C43.2873 159.512 43.6333 159.982 43.7566 160.522C43.8798 161.062 43.7708 161.631 43.458 162.086L42.055 164.119C41.6901 164.65 41.0834 164.973 40.4388 164.973L40.4435 164.977Z" fill="#110A1D"/>
<path d="M60.2623 164.845C59.6177 164.845 59.0063 164.537 58.6366 164.01L57.2478 162.053C56.9255 161.603 56.8118 161.034 56.9255 160.494C57.0393 159.953 57.3805 159.479 57.8592 159.2L60.4992 157.65C60.7978 157.474 61.1391 157.38 61.4851 157.375C62.2909 157.37 63.0161 157.849 63.3289 158.593L64.3242 160.977C64.7224 161.934 64.31 163.048 63.3858 163.513L61.1391 164.636C60.869 164.769 60.5656 164.845 60.267 164.845H60.2623Z" fill="#110A1D"/>
<path d="M38.2809 179.936C37.0723 179.945 35.9869 179.187 35.5746 178.049L30.9818 165.408C30.6879 165.551 30.3751 165.66 30.0575 165.74C29.6831 165.835 29.3039 165.882 28.92 165.882C28.6972 165.882 28.4792 165.873 28.2659 165.845C25.8723 165.541 24.0571 163.489 24.0428 161.072C24.0239 158.398 26.1852 156.209 28.8584 156.19C31.5316 156.171 33.7213 158.332 33.7355 161.005C33.7355 161.621 33.6313 162.214 33.4132 162.768C33.2947 163.072 33.1478 163.361 32.9772 163.636L41.7125 167.864L48.3955 158.18C48.1159 158.062 47.8457 157.915 47.5897 157.74C47.1063 157.413 46.6845 157.005 46.3432 156.526C45.7649 155.711 45.4521 154.749 45.4474 153.753C45.4284 151.08 47.5897 148.891 50.2629 148.872C50.3814 148.872 50.5047 148.872 50.6232 148.881C53.0167 149.042 54.9505 150.962 55.1259 153.355C55.2065 154.488 54.9079 155.574 54.2633 156.498C53.922 156.981 53.5049 157.394 53.0262 157.721C52.775 157.896 52.5048 158.043 52.2252 158.161L59.0267 167.745L67.6198 163.446C67.4586 163.138 67.3307 162.816 67.2359 162.479C67.1222 162.072 67.0605 161.645 67.0605 161.214C67.0605 161.019 67.07 160.825 67.0889 160.636C67.3638 158.199 69.4209 156.351 71.8713 156.337C74.5445 156.318 76.7343 158.479 76.7485 161.152C76.7675 163.702 74.7862 165.845 72.241 166.02L71.9377 166.029C71.4447 166.029 70.9613 165.963 70.4921 165.821C70.1887 165.726 69.8948 165.608 69.6199 165.456L65.3068 177.85C64.9134 178.992 63.8327 179.76 62.6241 179.77L38.2809 179.931V179.936Z" fill="#110A1D"/>
<path d="M99.9816 47.0401V166.635C99.9816 167.624 99.1801 168.415 98.2017 168.415C97.2233 168.415 96.4219 167.614 96.4219 166.635V47.0401C96.4219 46.0513 97.2233 45.2603 98.2017 45.2603C99.1801 45.2603 99.9816 46.0617 99.9816 47.0401Z" fill="white"/>
<path d="M4.43864 46.7799V166.375C4.43864 167.364 3.63722 168.155 2.65881 168.155C1.68039 168.155 0.878906 167.354 0.878906 166.375V46.7799C0.878906 45.791 1.68039 45 2.65881 45C3.63722 45 4.43864 45.8015 4.43864 46.7799Z" fill="white"/>
<path d="M99.0902 49.5555C99.0902 50.5443 98.2887 51.3354 97.3103 51.3354C96.3319 51.3354 95.5304 50.5339 95.5304 49.5555C95.5304 24.2001 74.9005 3.57015 49.5451 3.57015C24.1896 3.57015 3.55974 24.2001 3.55974 49.5555C3.55974 50.5443 2.75825 51.3354 1.77984 51.3354C0.801424 51.3354 0 50.5339 0 49.5555C0 22.2328 22.2328 0 49.5555 0C76.8782 0 99.111 22.2328 99.111 49.5555H99.0902Z" fill="white"/>
</svg>
